<?xml version="1.0" encoding="UTF-8" standalone="no"?>
<svg
   xmlns:dc="http://purl.org/dc/elements/1.1/"
   xmlns:cc="http://creativecommons.org/ns#"
   xmlns:rdf="http://www.w3.org/1999/02/22-rdf-syntax-ns#"
   xmlns:svg="http://www.w3.org/2000/svg"
   xmlns="http://www.w3.org/2000/svg"
   xmlns:xlink="http://www.w3.org/1999/xlink"
   xmlns:sodipodi="http://sodipodi.sourceforge.net/DTD/sodipodi-0.dtd"
   xmlns:inkscape="http://www.inkscape.org/namespaces/inkscape"
   width="147.129"
   height="160"
   viewBox="0 0 38.927 42.333"
   version="1.1"
   id="svg891"
   sodipodi:docname="Logo_of_the_UST_Growling_Tigers.svg"
   inkscape:version="0.92.4 (5da689c313, 2019-01-14)">
  <metadata
     id="metadata895">
    <rdf:RDF>
      <cc:Work
         rdf:about="">
        <dc:format>image/svg+xml</dc:format>
        <dc:type
           rdf:resource="http://purl.org/dc/dcmitype/StillImage" />
      </cc:Work>
    </rdf:RDF>
  </metadata>
  <sodipodi:namedview
     pagecolor="#ffffff"
     bordercolor="#666666"
     borderopacity="1"
     objecttolerance="10"
     gridtolerance="10"
     guidetolerance="10"
     inkscape:pageopacity="0"
     inkscape:pageshadow="2"
     inkscape:window-width="1600"
     inkscape:window-height="837"
     id="namedview893"
     showgrid="false"
     inkscape:zoom="11.313709"
     inkscape:cx="62.820974"
     inkscape:cy="126.62238"
     inkscape:window-x="-8"
     inkscape:window-y="-8"
     inkscape:window-maximized="1"
     inkscape:current-layer="svg891" />
  <defs
     id="defs821">
    <linearGradient
       id="A"
       x1="31.936"
       x2="32.414"
       y1="5.269"
       y2="7.296"
       gradientUnits="userSpaceOnUse">
      <stop
         stop-color="#f25744"
         offset="0"
         id="stop815" />
      <stop
         stop-color="#f69420"
         stop-opacity="0"
         offset="1"
         id="stop817" />
    </linearGradient>
    <path
       id="B"
       d="M31.33 10.68l.297-.2.86-2.953c.1-.252.283-.1.308.483.38-.107.533-.394.672-.7.034-.188-.15-.407-.4-.485-1.262-.224-2.373.168-3.5.523-.208.072-.28.264-.13.392l1.024.9-.035-.684c-.02-.334.387-.565.504-.187z" />
  </defs>
  <path
     d="M19.464 5.142C8.714 5.142-.001 13.468 0 23.737s8.714 18.597 19.464 18.597 19.464-8.327 19.464-18.597S30.214 5.14 19.464 5.14z"
     fill="#fedd00"
     fill-opacity=".94"
     id="path823" />
  <path
     d="M19.386 6.087C9.164 6.087.878 14.004.878 23.77s8.286 17.683 18.508 17.683 18.51-7.916 18.51-17.683-8.286-17.685-18.51-17.685zm.052 5.406c3.456 0 6.77 1.3 9.214 3.6s3.815 5.444 3.815 8.713h-.001c0 3.268-1.373 6.402-3.815 8.713s-5.758 3.6-9.214 3.6-6.77-1.3-9.214-3.6-3.816-5.443-3.816-8.713c0-6.805 5.834-12.323 13.03-12.323z"
     fill="#231f20"
     id="path825" />
  <g
     fill="#fff"
     id="g835">
    <path
       d="M5.964 32.32l.537-.39.883 1.23-1.1.798q-.497-.18-.785-.387-.282-.208-.553-.58-.333-.46-.387-.863-.053-.392.14-.787.194-.392.595-.674.422-.306.86-.358.44-.053.844.165.314.172.638.614.3.428.386.694.078.27.015.527-.06.258-.258.5l-.687-.67q.112-.153.106-.324-.004-.17-.132-.343-.2-.262-.486-.294-.294-.024-.687.263-.42.294-.485.6-.065.288.14.57.098.133.224.226.128.093.333.182l.242-.177zm.564 2.523l2.1-2.396 1.234 1.08q.343.3.473.52.13.218.1.476-.027.255-.23.485-.175.2-.387.27-.21.07-.438.03-.145-.026-.343-.132.094.16.116.257.015.065.008.23-.006.165-.026.24l-.25 1.01-.837-.733.245-1.08q.05-.208.027-.302-.03-.126-.132-.216l-.066-.057-.853.98zm1.99-.785l.312.275q.05.044.226.14.086.05.196.03.1-.02.17-.098.102-.116.082-.242-.02-.128-.222-.294l-.326-.294zm1.457 1.646q.38-.68.98-.848.59-.167 1.268.212.694.388.86.98.167.582-.208 1.253-.273.487-.612.708-.337.22-.745.22-.406 0-.868-.26-.47-.263-.687-.586-.224-.322-.233-.753-.01-.432.262-.92zm.857.485q-.235.422-.182.69.055.272.324.422.277.155.53.06.252-.095.513-.562.22-.392.16-.662-.056-.27-.327-.422-.26-.145-.52-.05-.26.096-.498.52z"
       id="path827" />
    <path
       d="M13.315 35.85l.896.262-.177 1.803.98-1.57.895.262-.026 1.846.824-1.613.883.26-1.567 2.86-.926-.27.026-2.08-1.097 1.768-.926-.27z"
       id="path829" />
    <path
       d="M17.542 36.983l.98.078-.19 2.393 1.53.123-.063.782-2.51-.2zm2.81.147l.985-.06.2 3.18-.985.06zm1.4-.016l.883-.214 1.576 1.436-.41-1.714.902-.216.74 3.1-.902.216-1.566-1.424.406 1.702-.9.216zm5.42.292l-.32-.58 1.334-.73.652 1.19q-.24.47-.483.728-.242.255-.647.476-.497.273-.904.275-.405.002-.763-.238-.355-.24-.593-.687-.25-.457-.247-.897.003-.44.27-.817.2-.29.7-.554.463-.255.738-.294.277-.042.524.052.248.092.473.32l-.75.605q-.137-.13-.308-.147-.167-.017-.358.098-.294.157-.345.446-.06.288.174.716.248.453.525.555.278.1.583-.067.145-.078.253-.193.098-.114.223-.308l-.144-.263zm1.238-2.977l1.996-2.23.586.525-.67.747 1.785 1.6-.657.733-1.785-1.6-.67.747zm2.222-2.58l.59-.797 2.577 1.864-.59.797zm3.453-1.638l-.59-.306.702-1.35 1.204.628q.063.525.003.883-.06.346-.273.755-.262.503-.59.732-.336.226-.767.226-.43-.003-.87-.23-.463-.24-.704-.608-.245-.37-.23-.83.013-.358.265-.844.243-.47.45-.655.196-.19.465-.248.258-.062.572.003l-.288.92q-.196-.03-.337.05-.15.078-.25.272-.15.287-.04.563.1.273.542.497.46.238.745.17.286-.072.447-.38.077-.147.103-.3.026-.155.014-.38l-.265-.137zm-1.077-2.383l.64-2.55.66.165-.4 1.602.5.123.37-1.486.63.157-.37 1.486.608.152.412-1.648.7.175-.65 2.605zm3.833-2.637l-3.185.03-.015-1.65q-.004-.456.072-.698.077-.242.287-.392.2-.15.514-.152.265-.002.46.098.192.11.314.308.078.126.13.343.057-.177.115-.257.04-.055.167-.157.128-.105.196-.14l.92-.485.01 1.112-.97.535q-.188.102-.245.18-.073.098-.072.242l.001.098 1.293-.012zm-1.903-.98l-.004-.415q-.001-.07-.046-.26-.02-.098-.1-.157-.08-.062-.196-.062-.154.002-.235.1-.08.098-.078.368l.004.432zm.75-2.31l-.277-.896q.216-.083.31-.202.152-.193.086-.468-.05-.196-.17-.29-.125-.098-.25-.06-.12.03-.2.157-.07.128-.062.534.01.664-.16.99-.17.327-.533.415-.238.06-.483-.03-.247-.098-.435-.335-.19-.25-.306-.733-.143-.593.004-.957.144-.366.612-.54l.27.9q-.2.086-.268.226-.07.137-.02.34.04.167.132.235.1.07.19.043.074-.018.118-.102.045-.082.036-.348-.016-.66.06-.964.072-.306.247-.478.175-.174.43-.235.298-.072.59.032.29.104.493.368.2.265.31.714.2.8-.04 1.177-.23.378-.7.53zm-30.05.26l-.147.98-1.877-.294q-.28-.042-.515-.17-.235-.124-.392-.338-.157-.213-.2-.43-.062-.3-.002-.687.035-.23.098-.497.074-.265.196-.434.125-.167.324-.294.2-.124.394-.15.314-.044.546-.01l1.877.294-.147.98-1.922-.292q-.258-.04-.426.08-.167.122-.204.376-.04.25.082.415.122.167.384.196zM3.36 23.36l.1.934q-.226.04-.343.135-.188.16-.18.44.007.21.098.32.104.112.235.098.124-.004.218-.116.094-.112.167-.5.124-.652.355-.936.23-.286.605-.3.245-.008.467.126.226.137.358.416.135.282.152.78.02.6-.196.937-.216.33-.708.406l-.085-.926q.214-.044.307-.167.094-.12.086-.33-.006-.172-.082-.255-.075-.084-.18-.08-.076.002-.134.077-.06.072-.106.333-.118.65-.25.932-.13.294-.338.418-.196.135-.467.144-.306.01-.57-.15-.265-.16-.41-.46-.143-.3-.157-.762-.027-.812.275-1.136.302-.324.783-.38z"
       id="path831" />
    <path
       d="M5.567 26.127l.65 2.92-.768.17-.218-.98-2.34.52-.214-.96 2.34-.52-.218-.98z"
       id="path833" />
  </g>
  <path
     d="m 21.357,0.305 0.48,0.035 z m -0.853,0.001 -0.108,0.01 z m 1.532,0.052 0.72,0.098 z m 0.906,0.118 0.533,0.083 z m 1.71,0.3 1.46,0.294 z m 6.444,4.34 0.618,0.44 z M 19.454,6.42 c 0.1,0.038 0.204,0.066 0.31,0.085 -0.105,-0.02 -0.21,-0.047 -0.31,-0.085 z M 29.402,6.614 28.277,7 Z m -7.98,1.08 c 0.012,0.024 0.08,0.026 0.126,0.047 -0.044,-0.02 -0.114,-0.024 -0.126,-0.047 z m -9.347,1.56 c -2.55,1.616 -3.41,2.992 -3.416,4.25 l 1.06,-0.346 -0.5,2.71 4.595,3.904 0.115,0.384 5.171,4.384 0.685,1.056 1.116,1.707 0.957,1.64 0.12,0.224 0.322,0.66 0.294,0.68 c 0.164,0.4 0.307,0.828 0.427,1.254 l 0.05,0.167 0.023,0.092 0.13,0.57 0.017,0.078 0.067,0.38 c 0.06,0.388 0.098,0.78 0.112,1.173 l -0.006,0.81 c 2.697,-1.08 4.335,-2.177 5.873,-3.865 -0.206,-2.123 -1.37,-3.946 -2.26,-4.892 l -3.166,-1.203 c -0.47,-0.116 -0.942,-0.28 -1.415,-0.458 l -1.278,-0.505 -0.9,-0.36 -1.82,-1.412 0.948,2.232 -2.114,-2.228 -1.015,-1.096 -3.428,-3.752 -2.215,-2.497 0.274,-0.842 0.87,-2.447 -1.658,0.08 2.150234,-1.9947697 z m 6.02,2.673 c -0.136,0.184 -0.244,0.387 -0.322,0.602 0.07746,-0.215271 0.185935,-0.418077 0.322,-0.602 z M 17.673,12.9 c -0.04213,0.213026 -0.0619,0.429868 -0.059,0.647 -0.0035,-0.216775 0.01598,-0.433308 0.058,-0.646 z m 0.106,1.76 c 0.147496,0.535276 0.346422,1.055029 0.594,1.552 -0.253,-0.52 -0.46,-1.044 -0.594,-1.552 z m -5.968,0.976 0.687,0.834 z m 6.76,0.965 c 0.547,1.035 1.246,2.037 1.864,2.864 -0.618,-0.826 -1.314,-1.83 -1.864,-2.864 z"
     id="path839"
     inkscape:connector-curvature="0"
     style="fill:#ffffff"
     sodipodi:nodetypes="ccccccccccccccccccccccccccccccccccccccccccccccccccccccccccccccccccccccccccccccccc" />
  <path
     d="M 20.81,0.001 C 20.504142,6.037863e-4 20.198882,0.02805037 19.898,0.083 L 6.362,3.675 6.402,3.989 8.1,6.96 c 0.487,1.02 1.085,1.244 1.572,1.65 l -2.305,0.977 1.15,0.816 -1.817,1.29 0.56,0.5 c -0.408,0.518 -0.785,1.06 -0.922,1.766 0.363,0.005 0.687,0.098 1.257,-0.027 l -0.436,1.834 4.084,2.288 c 0,0 -0.06,1.618 0.357,2.518 l 6.536,7.113 3.364,2.035 -6.844,-7.783 -0.827,-2.163 -4.594,-3.904 0.5,-2.71 -1.057,0.346 c 0.137,-2.287 2.391,-3.19 3.397,-4.252 l 0.220851,0.5303838 C 13.095851,11.914384 16.039,17.449 19.098,19.944 c 0.773,0.466 1.57,0.865 2.452,1.115 l 2.076,3.057 0.245,0.955 0.1,0.834 c 0.455,0.54 2.243,0.504 2.844,0.422 0.562,-0.072 1.066,-0.22 1.5,-0.46 0.654,-0.432 1.125,-0.857 1.52,-1.403 0.358804,-0.701888 0.540743,-1.480792 0.53,-2.269 0.006,-0.47 -0.26,-0.855 -0.605,-1.21 -0.235,-0.275 -0.287,-0.33 -0.385,-0.56 -0.71,-3.04 -1.048,-5.18 1.27,-7.96 0.078,1.275 -0.243,2.57 -0.098,3.803 1.463,-1.552 2.017,-3.107 2.27,-4.84 0.23,-0.45 0.632,-1.045 0.804,-1.772 0.02,-0.098 2.44,-0.995 2.452,-1.087 0.012,-0.092 -2.378,0.628 -2.374,0.53 0.0033,-0.075292 0.0036,-0.1506821 0.001,-0.226 -0.003,-0.077 0.007,-0.094 0,-0.167 -0.007,-0.073 2.36,-0.94 2.354,-1.012 -0.018,-0.084 -2.43,0.562 -2.46,0.5 C 33.53694,8.0300991 33.465667,7.8714962 33.381,7.72 L 32.596,6.036 C 32.484,5.796 32.286,5.57 32.029,5.356 31.213,4.718 30.216,4.218 29.283,3.664 29.087,3.189 28.723,2.291 28.4,1.972 27.73,1.466 27.052,1.007 26.257,0.76 24.454,0.38 22.293,-0.001 20.803,0.02 Z m -9.92,14.154 1.305,0.272 0.258,0.76 c 1.57,1.26 5.387,4.734 5.763,5.166 l -1.7,-0.218 c -1.847,-1.214 -4.88,-3.698 -5.628,-5.98 z"
     id="path837"
     inkscape:connector-curvature="0"
     sodipodi:nodetypes="cccccccccccccccccccccccccccccccccccccccsccsccccccccccccccccc" />
  <path
     d="M6.185 16.4L7.3 20.76l8.13 8.2 4.114 1.9L9.72 20.4l-.46-2.202z"
     id="path841" />
  <path
     d="M 7.028,4.248 6.695,3.885 c 4.52,-1.314 9.07,-2.448 13.342,-3.527 1.337,-0.27 3.946,0.263 6.077,0.706 0.767,0.238 1.393,0.654 2.04,1.143 0.302,0.298 0.734,1.255 0.924,1.712 0.9,0.536 1.85,1.016 2.638,1.63 0.25,0.206 0.44,0.424 0.547,0.657 -1.047,-0.05 -2.448,0.18 -3.987,0.8 -0.338,-0.108 -0.67,-0.154 -0.997,-0.145 l 0.765,0.662 c -1.726,-0.126 -2.616,-0.112 -5.8,-0.304 -1.108,0.538 -0.806,0.46 -0.69,0.515 l 1.144,0.016 -1.77,2.756 c -6.63,1.157 -1.565,7.592 0.348,10.048 l 2.482,3.6 0.108,0.917 c -1.193,-0.294 -2.393,-0.86 -3.592,-1.324 l -1.82,-1.412 0.95,2.233 c -2.746,-2.846 -5.852,-6.248 -8.78,-9.573 l 0.272,-0.844 c 0.265,0.914 3.12,4.468 5.738,5.954 l 1.59,0.245 -0.638,-0.435 c -2.02,-1.092 -3.418,-3.15 -5.125,-4.73 l -0.258,-0.76 c -0.575,0.095 -0.944,-0.082 -1.305,-0.272 l 0.87,-2.447 -1.658,0.08 L 12.260234,9.7912303 16.325,8.522 l -1.903,-0.95 2.5,-1.006 -1.305,1.412 6.054,-1.51 c -0.734,-0.03 -1.78,0.3 -2.508,-0.193 -0.098,-0.306 0.375,-0.628 0.778,-0.806 l -2.148,0.28 -0.57,-0.353 1.092,-0.755 -4.622,1.19 -1.446,0.05 C 11.443,5.549 11.05,5.011 10.452,4.576 Z M 8.1,6.95 9.67,8.61 7.365,9.587 8.515,10.403 6.7,11.7 l 0.56,0.5 -0.922,1.756 1.257,-0.027 -0.436,1.834 4.084,2.288 0.357,2.518 6.536,7.113 3.364,2.038 -7.055,-7.92 -0.5,-1.654 5.152,4.384 c 1.707,2.746 4.532,6.104 4.316,10.493 -4.333,1.685 -15.2,0.56 -16.9,-11.76 C 4.802,13.042 7.7,7.958 8.108,6.96 Z"
     id="path843"
     inkscape:connector-curvature="0"
     style="fill:#f69420"
     sodipodi:nodetypes="cccccccccccccccccccccccccccccccccccccccccccccccccccccccccccccccccc" />
  <path
     d="M22.525 7.78l-.77-.055c.16-.113.3-.243.608-.26l5.938.294c.262.018.863.416 1.628 1.037.106.062.432.747.514 1.236-1.08 1.15-1.763 1.242-2.51 1.522-3.554.84-4.322.003-5.395-.623l-.28.65-.983-1.572c.336-.71.844-1.398 1.243-2.225zm-1.57 2.58l1.19 1.7c-1.177 4.757.508 8.092 1.998 11.113.683-1.113 2.112-1.47 3.482-1.908.748-.098 1.606-.428 2.18.026.687.797.04 2.605-.54 3.215a4.81 4.81 0 0 1-2.06 1.253c-.88.15-1.442.018-2.354-.14-.34-.057-.422-.066-.396-.35l-.12-1.47c-1.228-.714-1.432-1.862-2.238-2.812-3.018-1.057-7.775-10.574-1.14-10.638"
     fill="#fff"
     id="path845" />
  <path
     d="m 6.184,16.426 1.177,4.378 7.994,8.24 L 19.65,31 9.89,20.642 C 9.562,20.172 9.384,19.955 9.373,18.304 Z m 5.891,-7.172 0.142,0.431 c 1.35,4.178 4.853,8.435 6.652,10.19 l 2.844,1.307 1.883,2.73 0.23,0.922 0.628,0.43 -0.12,-1.47 c -0.748,-0.935 -1.478,-1.687 -2.238,-2.813 l -1.23,-0.77 c -1.487,-1.526 -2.864,-3.467 -3.998,-5.18 -1.334,-2.016 -2.19,-3.727 -2.48,-4.24 l -0.38,-1.584 z m 14.015,1.361 1.604,-0.652 -10.018,-0.53 2.04,0.408 z m 0.8,-1.238 1.51,-0.615 -9.444,-0.5 1.922,0.384 z m -8.08,-8.47 -2.172,2.556 3.396,-2.28 1.042,-0.353 z"
     id="path847"
     inkscape:connector-curvature="0"
     sodipodi:nodetypes="cccccccccccccccccccccccccccccccccccc" />
  <path
     d="M21.076.825l-2.864 2.287 4.2-1.972 1.077-.123z"
     id="path849" />
  <path
     d="M19.98 2.998l3.865-1.442h2.307L24.73 1.2l-1.25-.192z"
     id="path851" />
  <path
     d="M21.672 3.25c2.457-.396 4.28-1.272 6.844.557l-.865-1.442-1.5-.807-3.653 1.134z"
     id="path853" />
  <path
     d="M25.735 4.138l3.793.517-1-.845-1.27.15-.71-.123z"
     id="path855" />
  <path
     d="M21.672 6.458l.612-.24 4.887-.394-3.786.96c-.18-.16-.762-.27-1.71-.327zm4.96-1.26l-2.868.844c-.326-.35-.7-.484-1.08-.435zM22.676 7.4c-2.66.498-1.314 3.136-.272 4.27l-.218.5c-1.467-1.314-2.59-4.593.047-4.95zm-7.29.888c.563 2.847 2.534 5.642 4.44 8.44l1.864 1.02-.04-.346-.827-.71c-1.327-1.746-3.256-5.517-4.345-7.96z"
     id="path859" />
  <path
     d="M17.117 5.343l1.518-.902 5.346-.845 2.768.922c-1.988.58-4.16 2.05-6.594.79-1.012.292-2.4 1.12-3.038.04z"
     fill="#fff"
     id="path861" />
  <path
     d="M21.67 3.66l3.466.95-1.795-1.074zm-3.833.46l.897.68h1.442a9.03 9.03 0 0 0 2.175.605c.306-.018.875-.26.938-.496l.885.098.06-.196.375-.035-.496-.124-.785.022c-.202-.24-.26-.608-1.026-.652-.296.006-1.4.213-2.297.564l-1.292-.218z"
     id="path863" />
  <path
     d="M23.018 4.667a.51.51 0 0 1-.196.392.75.75 0 0 1-.473.163c-.18 0-.347-.06-.473-.163s-.196-.245-.196-.392c0-.307.3-.556.67-.556s.67.25.67.556z"
     fill="#fff200"
     id="path865" />
  <path
     d="M22.614 4.6a.804.804 0 0 1-.049.29c-.03.077-.074.12-.118.12s-.086-.043-.118-.12a.804.804 0 0 1-.049-.29c0-.226.075-.4.167-.4.044 0 .086.043.118.12a.804.804 0 0 1 .049.29z"
     id="path867" />
  <path
     d="m 6.695,3.895 1.572,2.797 c 1.28,1.51 2.403,2.2 3.806,2.556 L 9.773,6.228 11.875,5.685 10.615,4.57 C 8.751,4.174 7.685,4.28 6.715,3.883 Z m 5.552,1.98 -1.818,0.543 1.522,2.053 c 1.148,1.044 1.26,1.08 3.548,0.31 L 15.428,8.3 16.478,8.732 C 16.286,8.188 15.336,7.934 14.421,7.577 l 2.501,-1.011 0.503,-0.522 -4.31,1.08 1.132,-1.47 z"
     id="path869"
     inkscape:connector-curvature="0"
     style="fill:#ffffff"
     sodipodi:nodetypes="cccccccccccccccccccc" />
  <path
     d="M22.448 11.163c-1.28 2.844-1.05 7.432 1.613 11.84.383-.687 1.373-1.1 2.01-1.344L22.7 16.77c.425-1.363.996-2.7 1.844-3.85l1.232-.837c-1.612.053-2.26-.353-3.327-.924z"
     fill="#5f3a16"
     id="path871" />
  <g
     transform="matrix(.980846 0 0 .980846 .000769 .030319)"
     id="g877">
    <use
       xlink:href="#B"
       fill="#3a3734"
       id="use873" />
    <use
       y="-.135"
       x="-.118"
       xlink:href="#B"
       fill="#ce2026"
       id="use875" />
  </g>
  <path
     d="M30.615 10.373l.29-.196.844-2.897c.106-.247.277-.098.302.474.373-.105.523-.386.66-.677.034-.185-.15-.39-.394-.476-1.237-.22-2.328.164-3.433.513-.204.07-.276.258-.128.384l1.004.872-.034-.67c-.02-.33.38-.554.493-.183z"
     fill="url(#A)"
     id="path879" />
  <path
     d="M31.092 10.388c-.023.16-.044.237.12.355.312.157.624.14.935.182.23.044.36.25.532.316.252-.445.46-.788.687-1.363.03-.092.1-.19-.037-.243l-1.61-.01.427-.118 1.337-.2c.062-.21.02-.453.006-.575l-1.292-.118 1.202-.333c-.03-.124-.045-.27-.294-.265-1.535.063-1.723 1.246-2.023 2.37z"
     fill="#fff"
     id="path881" />
  <path
     d="M11.865 5.7c.07.067.23.134.392.19l.7-.277c-.36.03-.67.006-1.083.086z"
     id="path883" />
  <path
     d="M23.076 16.744c.092-.98.593-1.864 1.09-2.61.137-.218.298-.255.633-.094 1.017.7 1.32 1.395 1.965 2.06l-1.197-2.215c-.2-.263-.34-.245-.552-.343.294-.242.647-.33 1.13.098 1.78 1.607 2.825 3.362 3.014 5.02.2.936-.468 1.368-1.187 1.654-1.116.44-2.035.23-2.393-.94-.243-1.25-1.46-2.553-2.503-2.638z"
     fill="#ed2026"
     id="path885" />
  <path
     d="M22.982 17.045c.08.52.314.743.628 1.142.853 1.182 1.085 2.043 2.074 2.817-.11-.67-.055-1.34-.333-2.008l-.143.37c-.054-.228-.11-.508-.114-.838l-.23.457a4.208 4.208 0 0 0 .038-1.256 1.09 1.09 0 0 0-.294.714c.001-.385.037-.634-.05-.814l-.226.406-.02-.8c-.118.196-.33.346-.353.504l.04-.828c-.106.102-.142.383-.343.343-.224-.007-.36-.638-.628-.95-.035.245-.065.486-.04.733zm2.844-4.953l1.332-.23c1.33-.154 1.633.115 3.2-.304.216-.047.343-.204.5-.346.328-.21 1.272-.343 1.618.085.042 2.452-1 3.498-1.898 4.777-.064-1.32.337-2.79.052-4.053-.14.353-.18.806-.446 1.033-.175-.33-.092-.608-.162-.92-.083.34-.03.763-.304.993-.3-.294-.26-.586-.363-.88-.005.333-.03.663-.228.927-.378-.343-.245-.698-.4-1.04.033.397.118.878-.085 1.085-.53-.32-.5-.703-.733-1.047-.01 2.58-.608 3.113-1.408 4.3-.182-1.75.406-3.62-.687-4.382zm1.475 9.055l-1.14.48c-.186.08-.222.07-.263-.105-.336-1.748.356-3.37 1.412-4.608l-.055 2.505c.046-.118.07-.206.23-.307.114.203.104.407.115.6.026-.21.03-.42.177-.628.18.183.196.398.198.618.035-.2.043-.432.2-.593.125.157.196.32.196.53.001-.167.04-.38.182-.53.143.124.157.214.183.505l.238-.37c.47-.883 1.275-1.818 1.646-2.635-.226 1.6-.778 2.478-1.418 3.892-.162-.014-.255-.1-.457-.1-.366 0-.9.112-1.427.233z"
     fill="#fafc6f"
     id="path887" />
  <path
     d="M25.048 18.713c.032.272.05.542.147.814.035-.133.074-.267.162-.383.134.457.196.915.216 1.373.035.32-.054.253-.216.098-.3-.232-.533-.64-.753-1.006-.072-.098-.172-.196.06-.27.272-.15.202-.355.383-.626zm-2.01-2.325c-.13.802.196 1.316.435 1.55-.006-.17-.003-.35.122-.506.057-.063.05-.108-.013-.157-.184-.082-.332-.59-.545-.885zm1.51 1.305c-.14.258-.29.506-.326.782-.03.07-.067.077-.1.11-.062.05-.12.122-.022.188.128.206.137.368.326.435.124.053.23.015.335-.04.157-.43.132-.885.108-1.28-.213.218-.193.488-.282.736-.08-.3.007-.642-.04-.932zm-.625-.59c-.104.232-.394.3-.412.652-.003.098-.02.224.095.333l.284.37c.075.084.258.108.3.005.147-.424.098-.7.085-1.066-.2.193-.24.327-.348.486zm6.138-5.37c.2-.078.368-.1.603-.147-.007.378-.235 1.21-.444 1.412-.13-.216-.116-.976-.16-1.265zm-.68.14c.2-.078.445-.104.68-.14-.085.418-.1 1.145-.307 1.347-.287-.18-.33-.918-.373-1.206zm-.67.043a2.58 2.58 0 0 1 .67-.043c-.066.422-.062 1.043-.23 1.24-.287-.18-.25-.92-.44-1.197zm-.853.037c.245-.105.58-.073.853-.037-.066.422.147 1.052-.05 1.244-.336-.077-.476-.772-.8-1.206zm-1.77.213c.528-.1 1.08-.27 1.716-.216.155 1.467-.186 2.86-1.212 4.267-.147-1.317.464-2.915-.503-4.05zm4.576-.58c.104-.465 1.643-.677 1.766-.193-.054 2.374-.955 3.215-1.766 4.5.042-1.46.422-2.893 0-4.316zm-1.832 8.038l1.722-2.746c-.213 1.28-.84 2.383-1.367 3.6-.13-.05-.24-.114-.383-.098.004-.2-.047-.657.03-.745zm-.07.76c-.118-.008-.226.006-.34.015-.007-.38-.088-.976.144-1.253.216.125.177.86.196 1.238zm-.373.02c-.108.014-.208.022-.345.054-.007-.394-.088-1 .144-1.295.226.25.177.807.202 1.24zm-.424.07l-.327.05c.03-.468-.063-1.07.167-1.357.223.277.142.957.16 1.307zm-.494-1.275c.144.4.098.898.085 1.334l-.282.054c.03-.468-.15-1.1.196-1.39zm-.252-2.013l-.05 2.268.06 1.177c-.004.15-.022.307-.005.46l-1.042.45c-.167.07-.175-.03-.193-.12-.243-1.152.067-2.778 1.232-4.227z"
     fill="#fff"
     id="path889" />
</svg>
